<mxfile host="app.diagrams.net" agent="Mozilla/5.0 (Windows NT 10.0; Win64; x64) AppleWebKit/537.36 (KHTML, like Gecko) Chrome/131.0.0.0 Safari/537.36" version="25.0.1">
  <diagram id="C5RBs43oDa-KdzZeNtuy" name="Page-1">
    <mxGraphModel dx="1434" dy="738" grid="1" gridSize="10" guides="1" tooltips="1" connect="1" arrows="1" fold="1" page="1" pageScale="1" pageWidth="827" pageHeight="1169" math="0" shadow="0">
      <root>
        <mxCell id="WIyWlLk6GJQsqaUBKTNV-0" />
        <mxCell id="WIyWlLk6GJQsqaUBKTNV-1" parent="WIyWlLk6GJQsqaUBKTNV-0" />
        <mxCell id="BqznvouL7BfpSOCFibUr-3" value="" style="edgeStyle=orthogonalEdgeStyle;rounded=0;orthogonalLoop=1;jettySize=auto;html=1;" edge="1" parent="WIyWlLk6GJQsqaUBKTNV-1" source="BqznvouL7BfpSOCFibUr-0" target="BqznvouL7BfpSOCFibUr-2">
          <mxGeometry relative="1" as="geometry" />
        </mxCell>
        <mxCell id="BqznvouL7BfpSOCFibUr-0" value="开始支付流程" style="ellipse;whiteSpace=wrap;html=1;" vertex="1" parent="WIyWlLk6GJQsqaUBKTNV-1">
          <mxGeometry x="340" y="10" width="120" height="80" as="geometry" />
        </mxCell>
        <mxCell id="BqznvouL7BfpSOCFibUr-1" value="结束" style="ellipse;whiteSpace=wrap;html=1;" vertex="1" parent="WIyWlLk6GJQsqaUBKTNV-1">
          <mxGeometry x="340" y="1710" width="120" height="80" as="geometry" />
        </mxCell>
        <mxCell id="BqznvouL7BfpSOCFibUr-7" style="edgeStyle=orthogonalEdgeStyle;rounded=0;orthogonalLoop=1;jettySize=auto;html=1;exitX=1;exitY=0.5;exitDx=0;exitDy=0;entryX=1;entryY=0.5;entryDx=0;entryDy=0;" edge="1" parent="WIyWlLk6GJQsqaUBKTNV-1" source="BqznvouL7BfpSOCFibUr-2" target="BqznvouL7BfpSOCFibUr-1">
          <mxGeometry relative="1" as="geometry">
            <Array as="points">
              <mxPoint x="1080" y="190" />
              <mxPoint x="1080" y="1750" />
            </Array>
          </mxGeometry>
        </mxCell>
        <mxCell id="BqznvouL7BfpSOCFibUr-10" value="" style="edgeStyle=orthogonalEdgeStyle;rounded=0;orthogonalLoop=1;jettySize=auto;html=1;" edge="1" parent="WIyWlLk6GJQsqaUBKTNV-1" source="BqznvouL7BfpSOCFibUr-2" target="BqznvouL7BfpSOCFibUr-9">
          <mxGeometry relative="1" as="geometry" />
        </mxCell>
        <mxCell id="BqznvouL7BfpSOCFibUr-2" value="是否有正在进行的支付" style="rhombus;whiteSpace=wrap;html=1;" vertex="1" parent="WIyWlLk6GJQsqaUBKTNV-1">
          <mxGeometry x="320" y="150" width="160" height="80" as="geometry" />
        </mxCell>
        <mxCell id="BqznvouL7BfpSOCFibUr-8" value="是" style="text;html=1;align=center;verticalAlign=middle;resizable=0;points=[];autosize=1;strokeColor=none;fillColor=none;" vertex="1" parent="WIyWlLk6GJQsqaUBKTNV-1">
          <mxGeometry x="770" y="338" width="40" height="30" as="geometry" />
        </mxCell>
        <mxCell id="BqznvouL7BfpSOCFibUr-12" style="edgeStyle=orthogonalEdgeStyle;rounded=0;orthogonalLoop=1;jettySize=auto;html=1;exitX=1;exitY=0.5;exitDx=0;exitDy=0;entryX=1;entryY=0.5;entryDx=0;entryDy=0;" edge="1" parent="WIyWlLk6GJQsqaUBKTNV-1" source="BqznvouL7BfpSOCFibUr-9" target="BqznvouL7BfpSOCFibUr-1">
          <mxGeometry relative="1" as="geometry">
            <Array as="points">
              <mxPoint x="1080" y="328" />
              <mxPoint x="1080" y="1750" />
            </Array>
          </mxGeometry>
        </mxCell>
        <mxCell id="BqznvouL7BfpSOCFibUr-14" value="" style="edgeStyle=orthogonalEdgeStyle;rounded=0;orthogonalLoop=1;jettySize=auto;html=1;" edge="1" parent="WIyWlLk6GJQsqaUBKTNV-1" source="BqznvouL7BfpSOCFibUr-9" target="BqznvouL7BfpSOCFibUr-13">
          <mxGeometry relative="1" as="geometry" />
        </mxCell>
        <mxCell id="BqznvouL7BfpSOCFibUr-9" value="是否正在进行恢复购买" style="rhombus;whiteSpace=wrap;html=1;" vertex="1" parent="WIyWlLk6GJQsqaUBKTNV-1">
          <mxGeometry x="320" y="288" width="160" height="80" as="geometry" />
        </mxCell>
        <mxCell id="BqznvouL7BfpSOCFibUr-11" value="否" style="text;html=1;align=center;verticalAlign=middle;resizable=0;points=[];autosize=1;strokeColor=none;fillColor=none;" vertex="1" parent="WIyWlLk6GJQsqaUBKTNV-1">
          <mxGeometry x="390" y="238" width="40" height="30" as="geometry" />
        </mxCell>
        <mxCell id="BqznvouL7BfpSOCFibUr-17" value="" style="edgeStyle=orthogonalEdgeStyle;rounded=0;orthogonalLoop=1;jettySize=auto;html=1;" edge="1" parent="WIyWlLk6GJQsqaUBKTNV-1" source="BqznvouL7BfpSOCFibUr-13" target="BqznvouL7BfpSOCFibUr-16">
          <mxGeometry relative="1" as="geometry" />
        </mxCell>
        <mxCell id="BqznvouL7BfpSOCFibUr-13" value="获取商品价格" style="rounded=0;whiteSpace=wrap;html=1;" vertex="1" parent="WIyWlLk6GJQsqaUBKTNV-1">
          <mxGeometry x="340" y="420" width="120" height="60" as="geometry" />
        </mxCell>
        <mxCell id="BqznvouL7BfpSOCFibUr-15" value="否" style="text;html=1;align=center;verticalAlign=middle;resizable=0;points=[];autosize=1;strokeColor=none;fillColor=none;" vertex="1" parent="WIyWlLk6GJQsqaUBKTNV-1">
          <mxGeometry x="394" y="380" width="40" height="30" as="geometry" />
        </mxCell>
        <mxCell id="BqznvouL7BfpSOCFibUr-19" value="" style="edgeStyle=orthogonalEdgeStyle;rounded=0;orthogonalLoop=1;jettySize=auto;html=1;" edge="1" parent="WIyWlLk6GJQsqaUBKTNV-1" source="BqznvouL7BfpSOCFibUr-16" target="BqznvouL7BfpSOCFibUr-18">
          <mxGeometry relative="1" as="geometry" />
        </mxCell>
        <mxCell id="BqznvouL7BfpSOCFibUr-16" value="获取商品价格代码" style="rounded=0;whiteSpace=wrap;html=1;" vertex="1" parent="WIyWlLk6GJQsqaUBKTNV-1">
          <mxGeometry x="340" y="525" width="120" height="60" as="geometry" />
        </mxCell>
        <mxCell id="BqznvouL7BfpSOCFibUr-21" value="" style="edgeStyle=orthogonalEdgeStyle;rounded=0;orthogonalLoop=1;jettySize=auto;html=1;" edge="1" parent="WIyWlLk6GJQsqaUBKTNV-1" source="BqznvouL7BfpSOCFibUr-18" target="BqznvouL7BfpSOCFibUr-20">
          <mxGeometry relative="1" as="geometry" />
        </mxCell>
        <mxCell id="BqznvouL7BfpSOCFibUr-30" value="" style="edgeStyle=orthogonalEdgeStyle;rounded=0;orthogonalLoop=1;jettySize=auto;html=1;" edge="1" parent="WIyWlLk6GJQsqaUBKTNV-1" source="BqznvouL7BfpSOCFibUr-18" target="BqznvouL7BfpSOCFibUr-29">
          <mxGeometry relative="1" as="geometry" />
        </mxCell>
        <mxCell id="BqznvouL7BfpSOCFibUr-18" value="是否已经连接商店" style="rhombus;whiteSpace=wrap;html=1;" vertex="1" parent="WIyWlLk6GJQsqaUBKTNV-1">
          <mxGeometry x="320" y="630" width="160" height="80" as="geometry" />
        </mxCell>
        <mxCell id="BqznvouL7BfpSOCFibUr-24" value="" style="edgeStyle=orthogonalEdgeStyle;rounded=0;orthogonalLoop=1;jettySize=auto;html=1;" edge="1" parent="WIyWlLk6GJQsqaUBKTNV-1" source="BqznvouL7BfpSOCFibUr-20" target="BqznvouL7BfpSOCFibUr-22">
          <mxGeometry relative="1" as="geometry" />
        </mxCell>
        <mxCell id="BqznvouL7BfpSOCFibUr-20" value="连接商店" style="rounded=0;whiteSpace=wrap;html=1;" vertex="1" parent="WIyWlLk6GJQsqaUBKTNV-1">
          <mxGeometry x="140" y="640" width="120" height="60" as="geometry" />
        </mxCell>
        <mxCell id="BqznvouL7BfpSOCFibUr-25" style="edgeStyle=orthogonalEdgeStyle;rounded=0;orthogonalLoop=1;jettySize=auto;html=1;exitX=0.5;exitY=1;exitDx=0;exitDy=0;entryX=0;entryY=0.5;entryDx=0;entryDy=0;" edge="1" parent="WIyWlLk6GJQsqaUBKTNV-1" source="BqznvouL7BfpSOCFibUr-22" target="BqznvouL7BfpSOCFibUr-1">
          <mxGeometry relative="1" as="geometry">
            <Array as="points">
              <mxPoint x="40" y="830" />
              <mxPoint x="40" y="1750" />
            </Array>
          </mxGeometry>
        </mxCell>
        <mxCell id="BqznvouL7BfpSOCFibUr-31" value="" style="edgeStyle=orthogonalEdgeStyle;rounded=0;orthogonalLoop=1;jettySize=auto;html=1;" edge="1" parent="WIyWlLk6GJQsqaUBKTNV-1" source="BqznvouL7BfpSOCFibUr-22" target="BqznvouL7BfpSOCFibUr-29">
          <mxGeometry relative="1" as="geometry" />
        </mxCell>
        <mxCell id="BqznvouL7BfpSOCFibUr-22" value="连接商店是否成功" style="rhombus;whiteSpace=wrap;html=1;" vertex="1" parent="WIyWlLk6GJQsqaUBKTNV-1">
          <mxGeometry x="120" y="750" width="160" height="80" as="geometry" />
        </mxCell>
        <mxCell id="BqznvouL7BfpSOCFibUr-26" value="否" style="text;html=1;align=center;verticalAlign=middle;resizable=0;points=[];autosize=1;strokeColor=none;fillColor=none;" vertex="1" parent="WIyWlLk6GJQsqaUBKTNV-1">
          <mxGeometry x="30" y="938" width="40" height="30" as="geometry" />
        </mxCell>
        <mxCell id="BqznvouL7BfpSOCFibUr-33" style="edgeStyle=orthogonalEdgeStyle;rounded=0;orthogonalLoop=1;jettySize=auto;html=1;exitX=0.5;exitY=1;exitDx=0;exitDy=0;entryX=0.5;entryY=0;entryDx=0;entryDy=0;" edge="1" parent="WIyWlLk6GJQsqaUBKTNV-1" source="BqznvouL7BfpSOCFibUr-29" target="BqznvouL7BfpSOCFibUr-32">
          <mxGeometry relative="1" as="geometry" />
        </mxCell>
        <mxCell id="BqznvouL7BfpSOCFibUr-47" style="edgeStyle=orthogonalEdgeStyle;rounded=0;orthogonalLoop=1;jettySize=auto;html=1;exitX=0.5;exitY=1;exitDx=0;exitDy=0;" edge="1" parent="WIyWlLk6GJQsqaUBKTNV-1" source="BqznvouL7BfpSOCFibUr-29" target="BqznvouL7BfpSOCFibUr-46">
          <mxGeometry relative="1" as="geometry" />
        </mxCell>
        <mxCell id="BqznvouL7BfpSOCFibUr-50" style="edgeStyle=orthogonalEdgeStyle;rounded=0;orthogonalLoop=1;jettySize=auto;html=1;exitX=0.5;exitY=1;exitDx=0;exitDy=0;" edge="1" parent="WIyWlLk6GJQsqaUBKTNV-1" source="BqznvouL7BfpSOCFibUr-29" target="BqznvouL7BfpSOCFibUr-49">
          <mxGeometry relative="1" as="geometry" />
        </mxCell>
        <mxCell id="BqznvouL7BfpSOCFibUr-29" value="调用原生支付sdk进行支付" style="rounded=0;whiteSpace=wrap;html=1;" vertex="1" parent="WIyWlLk6GJQsqaUBKTNV-1">
          <mxGeometry x="340" y="760" width="120" height="60" as="geometry" />
        </mxCell>
        <mxCell id="BqznvouL7BfpSOCFibUr-36" value="" style="edgeStyle=orthogonalEdgeStyle;rounded=0;orthogonalLoop=1;jettySize=auto;html=1;" edge="1" parent="WIyWlLk6GJQsqaUBKTNV-1" source="BqznvouL7BfpSOCFibUr-32" target="BqznvouL7BfpSOCFibUr-35">
          <mxGeometry relative="1" as="geometry" />
        </mxCell>
        <mxCell id="BqznvouL7BfpSOCFibUr-32" value="支付失败" style="rounded=0;whiteSpace=wrap;html=1;" vertex="1" parent="WIyWlLk6GJQsqaUBKTNV-1">
          <mxGeometry x="230" y="898" width="120" height="60" as="geometry" />
        </mxCell>
        <mxCell id="BqznvouL7BfpSOCFibUr-43" value="" style="edgeStyle=orthogonalEdgeStyle;rounded=0;orthogonalLoop=1;jettySize=auto;html=1;" edge="1" parent="WIyWlLk6GJQsqaUBKTNV-1" source="BqznvouL7BfpSOCFibUr-35" target="BqznvouL7BfpSOCFibUr-39">
          <mxGeometry relative="1" as="geometry" />
        </mxCell>
        <mxCell id="BqznvouL7BfpSOCFibUr-44" style="edgeStyle=orthogonalEdgeStyle;rounded=0;orthogonalLoop=1;jettySize=auto;html=1;entryX=0.5;entryY=0;entryDx=0;entryDy=0;" edge="1" parent="WIyWlLk6GJQsqaUBKTNV-1" source="BqznvouL7BfpSOCFibUr-35" target="BqznvouL7BfpSOCFibUr-1">
          <mxGeometry relative="1" as="geometry" />
        </mxCell>
        <mxCell id="BqznvouL7BfpSOCFibUr-35" value="商品是否为消耗型" style="rhombus;whiteSpace=wrap;html=1;" vertex="1" parent="WIyWlLk6GJQsqaUBKTNV-1">
          <mxGeometry x="320" y="1090" width="160" height="80" as="geometry" />
        </mxCell>
        <mxCell id="BqznvouL7BfpSOCFibUr-38" value="否" style="text;html=1;align=center;verticalAlign=middle;resizable=0;points=[];autosize=1;strokeColor=none;fillColor=none;" vertex="1" parent="WIyWlLk6GJQsqaUBKTNV-1">
          <mxGeometry x="360" y="1260" width="40" height="30" as="geometry" />
        </mxCell>
        <mxCell id="BqznvouL7BfpSOCFibUr-45" style="edgeStyle=orthogonalEdgeStyle;rounded=0;orthogonalLoop=1;jettySize=auto;html=1;exitX=0.5;exitY=1;exitDx=0;exitDy=0;" edge="1" parent="WIyWlLk6GJQsqaUBKTNV-1" source="BqznvouL7BfpSOCFibUr-39">
          <mxGeometry relative="1" as="geometry">
            <mxPoint x="400" y="1711" as="targetPoint" />
          </mxGeometry>
        </mxCell>
        <mxCell id="BqznvouL7BfpSOCFibUr-39" value="删除正在购买的礼包" style="rounded=0;whiteSpace=wrap;html=1;" vertex="1" parent="WIyWlLk6GJQsqaUBKTNV-1">
          <mxGeometry x="90" y="1100" width="120" height="60" as="geometry" />
        </mxCell>
        <mxCell id="BqznvouL7BfpSOCFibUr-41" value="是" style="text;html=1;align=center;verticalAlign=middle;resizable=0;points=[];autosize=1;strokeColor=none;fillColor=none;" vertex="1" parent="WIyWlLk6GJQsqaUBKTNV-1">
          <mxGeometry x="230" y="1100" width="40" height="30" as="geometry" />
        </mxCell>
        <mxCell id="BqznvouL7BfpSOCFibUr-48" style="edgeStyle=orthogonalEdgeStyle;rounded=0;orthogonalLoop=1;jettySize=auto;html=1;exitX=0.5;exitY=1;exitDx=0;exitDy=0;entryX=0.5;entryY=0;entryDx=0;entryDy=0;" edge="1" parent="WIyWlLk6GJQsqaUBKTNV-1" source="BqznvouL7BfpSOCFibUr-46" target="BqznvouL7BfpSOCFibUr-35">
          <mxGeometry relative="1" as="geometry" />
        </mxCell>
        <mxCell id="BqznvouL7BfpSOCFibUr-46" value="支付成功" style="rounded=0;whiteSpace=wrap;html=1;" vertex="1" parent="WIyWlLk6GJQsqaUBKTNV-1">
          <mxGeometry x="380" y="898" width="120" height="60" as="geometry" />
        </mxCell>
        <mxCell id="BqznvouL7BfpSOCFibUr-51" style="edgeStyle=orthogonalEdgeStyle;rounded=0;orthogonalLoop=1;jettySize=auto;html=1;exitX=0.5;exitY=1;exitDx=0;exitDy=0;" edge="1" parent="WIyWlLk6GJQsqaUBKTNV-1" source="BqznvouL7BfpSOCFibUr-49">
          <mxGeometry relative="1" as="geometry">
            <mxPoint x="400" y="1090" as="targetPoint" />
          </mxGeometry>
        </mxCell>
        <mxCell id="BqznvouL7BfpSOCFibUr-49" value="支付取消" style="rounded=0;whiteSpace=wrap;html=1;" vertex="1" parent="WIyWlLk6GJQsqaUBKTNV-1">
          <mxGeometry x="530" y="898" width="120" height="60" as="geometry" />
        </mxCell>
      </root>
    </mxGraphModel>
  </diagram>
</mxfile>
